<?xml version="1.0" standalone="no"?>
<!DOCTYPE svg PUBLIC "-//W3C//DTD SVG 20010904//EN"
 "http://www.w3.org/TR/2001/REC-SVG-20010904/DTD/svg10.dtd">
<svg version="1.0" xmlns="http://www.w3.org/2000/svg"
 width="700.000000pt" height="700.000000pt" viewBox="0 0 700.000000 700.000000"
 preserveAspectRatio="xMidYMid meet">
<metadata>
Created by potrace 1.11, written by Peter Selinger 2001-2013
</metadata>
<g transform="translate(0.000000,700.000000) scale(0.100000,-0.100000)"
fill="#000000" stroke="none">
<path d="M3367 6984 c-1 -1 -65 -5 -142 -8 -77 -3 -167 -10 -200 -15 -33 -5
-78 -12 -100 -16 -256 -39 -565 -130 -835 -246 -273 -117 -652 -353 -859 -535
-118 -104 -374 -367 -452 -464 -203 -253 -392 -574 -505 -855 -147 -369 -235
-738 -251 -1060 -11 -232 -5 -611 13 -733 41 -288 103 -535 197 -792 120 -330
345 -719 571 -990 80 -95 337 -356 436 -441 428 -369 1087 -678 1630 -764 19
-3 46 -7 60 -10 14 -2 44 -7 66 -10 42 -6 58 -8 174 -21 112 -13 671 -5 770
11 14 2 59 9 100 15 417 66 827 206 1167 401 59 34 117 67 128 73 93 51 308
205 425 305 75 65 343 333 412 412 213 247 440 625 566 944 33 83 99 273 109
310 1 6 18 73 38 150 19 77 38 154 40 170 3 17 12 66 20 110 30 171 37 281 37
575 0 261 -7 391 -27 510 -85 520 -238 939 -492 1346 -84 135 -241 350 -313
429 -110 120 -333 338 -439 428 -56 48 -242 180 -352 249 -202 127 -504 270
-719 341 -121 40 -306 92 -370 103 -14 3 -41 9 -60 14 -19 5 -53 11 -75 15
-23 3 -50 7 -62 9 -12 3 -43 8 -70 12 -26 3 -57 8 -67 10 -53 10 -560 25 -569
18z m253 -149 c107 -3 204 -8 215 -9 11 -1 45 -6 75 -10 83 -11 271 -46 305
-56 17 -5 41 -11 55 -14 45 -8 244 -67 327 -96 371 -131 719 -331 1047 -602
114 -95 138 -123 130 -153 -5 -20 -60 -52 -103 -60 -34 -6 -36 -11 -13 -31 34
-29 5 -80 -78 -136 -14 -9 -43 -33 -64 -52 -22 -19 -59 -41 -83 -48 -24 -7
-43 -16 -43 -20 0 -4 -12 -8 -27 -8 -14 0 -35 -7 -45 -17 -34 -30 -250 -115
-283 -111 -12 1 -37 -5 -56 -14 -43 -21 -70 -31 -89 -32 -8 -1 -21 -5 -27 -9
-7 -4 -21 -3 -32 3 -23 12 -32 4 -60 -50 -15 -28 -25 -35 -52 -37 -45 -3 -151
-23 -164 -31 -5 -4 -16 -7 -23 -8 -7 -1 -29 -14 -48 -29 -19 -15 -41 -28 -47
-29 -7 -1 -23 -8 -36 -15 -19 -10 -25 -10 -31 -1 -10 16 -94 5 -110 -15 -7 -8
-17 -15 -22 -15 -5 0 -24 -11 -41 -24 -18 -13 -42 -27 -54 -30 -45 -14 -163
38 -198 86 -61 86 -135 216 -136 237 -2 57 -11 120 -26 181 -2 8 -6 51 -8 95
-2 44 -11 98 -18 120 -8 22 -18 65 -22 95 -4 30 -32 127 -61 215 -30 88 -53
167 -52 175 2 8 -3 23 -12 33 -17 20 -59 132 -60 160 0 9 -4 17 -8 17 -5 0
-16 18 -26 40 -10 22 -21 40 -25 40 -15 0 -59 45 -85 88 -15 23 -54 69 -88
102 -38 37 -58 64 -52 70 8 8 122 18 149 13 6 -1 98 -4 205 -8z m-930 -205
c15 -47 50 -141 78 -210 28 -69 64 -165 80 -215 17 -49 41 -115 55 -145 21
-47 39 -107 38 -125 -1 -11 32 -79 43 -91 7 -7 16 -30 19 -52 4 -21 20 -58 37
-81 40 -54 46 -72 54 -151 11 -120 20 -158 51 -226 38 -84 38 -108 0 -147 -19
-19 -37 -50 -40 -69 -4 -19 -18 -47 -31 -61 -21 -23 -33 -27 -77 -27 -30 0
-62 -6 -74 -15 -19 -13 -85 -27 -141 -28 -14 -1 -21 -6 -18 -14 3 -7 1 -13 -4
-13 -6 0 -12 0 -15 0 -3 0 -22 -9 -42 -20 -21 -11 -45 -20 -54 -20 -9 0 -36
-9 -60 -19 -50 -22 -107 -21 -142 2 -13 8 -58 48 -99 87 -67 63 -175 140 -197
140 -4 0 -18 11 -30 24 -32 34 -82 56 -110 49 -27 -7 -61 -71 -61 -115 1 -18
11 -62 23 -98 18 -52 27 -66 45 -68 20 -3 22 -8 17 -32 -5 -22 0 -35 24 -62
35 -40 54 -83 46 -107 -5 -18 89 -106 104 -97 27 17 34 -154 10 -216 -8 -21
-8 -40 0 -75 13 -51 53 -152 77 -196 40 -72 -5 -228 -76 -264 -14 -7 -46 -13
-71 -13 -25 0 -59 -4 -75 -10 -16 -5 -58 -11 -94 -13 -69 -4 -101 6 -134 42
-11 12 -28 21 -39 21 -17 0 -19 -5 -15 -54 3 -31 13 -66 24 -81 10 -15 24 -37
31 -48 16 -29 54 -57 76 -57 16 0 18 5 12 43 l-7 42 31 -40 c17 -22 31 -47 31
-56 0 -9 10 -19 24 -21 l23 -5 -28 41 c-15 23 -23 43 -18 44 5 2 9 10 9 18 0
8 3 14 8 14 4 0 16 16 26 35 25 46 39 34 31 -26 -9 -61 4 -59 59 12 22 27 43
49 48 49 11 0 4 -50 -12 -79 -14 -27 -9 -83 8 -89 6 -2 12 4 12 13 0 9 5 13
10 10 6 -3 10 -21 10 -38 0 -18 10 -48 22 -67 12 -19 30 -51 39 -70 21 -45 67
-100 84 -100 7 0 25 -14 40 -31 l26 -32 -26 -27 -25 -27 22 -24 c53 -57 78
-91 73 -99 -3 -5 16 -29 42 -53 34 -33 47 -53 48 -73 0 -23 5 -30 24 -32 13
-2 34 2 47 9 19 10 29 9 57 -5 19 -9 42 -16 51 -16 15 0 15 3 0 33 l-16 32 29
-27 c32 -30 48 -36 40 -14 -3 8 3 22 14 32 10 9 19 14 19 10 0 -4 5 -4 11 -1
7 5 4 14 -7 26 -16 18 -16 19 10 19 15 0 29 6 32 13 6 15 132 21 149 7 17 -14
43 -3 51 22 4 13 9 17 16 10 6 -6 21 -7 41 -1 23 7 41 4 76 -13 25 -12 52 -20
59 -19 20 3 92 -47 92 -64 0 -18 12 -19 28 -3 9 9 15 9 24 0 9 -9 8 -12 -5
-12 -10 0 -20 -7 -23 -15 -6 -15 -40 -15 -64 0 -20 13 -9 -7 18 -30 31 -28 20
-32 -31 -10 -23 9 -38 11 -42 5 -3 -6 1 -10 10 -10 9 0 33 -9 54 -20 22 -11
58 -26 80 -34 35 -12 41 -12 41 0 0 8 -13 17 -29 20 -41 9 -45 29 -11 60 39
37 121 41 160 7 l25 -22 -69 4 c-38 3 -66 2 -62 -2 9 -9 35 -14 74 -15 17 0
32 -4 32 -9 0 -5 -4 -9 -10 -9 -19 0 -10 -18 13 -23 17 -4 157 -19 187 -19 44
-1 38 16 -10 31 -22 6 -40 16 -40 21 0 13 3 12 37 -1 15 -6 41 -13 57 -16 47
-8 76 -22 76 -37 0 -17 36 -28 59 -17 56 28 92 32 142 16 13 -5 19 -2 19 10 0
12 4 14 17 6 12 -6 26 -5 45 5 16 8 41 21 57 29 16 8 37 12 46 9 24 -10 145
25 145 42 0 10 8 12 29 8 19 -4 38 0 52 10 13 9 38 16 56 16 17 0 34 4 37 9 3
4 21 11 41 14 44 7 141 65 178 106 15 17 31 31 37 31 16 0 21 -61 13 -145 -14
-134 -10 -424 5 -434 7 -4 14 -22 14 -39 1 -39 23 -48 57 -25 14 10 31 18 36
18 6 0 16 4 23 9 7 4 36 10 65 13 65 7 85 17 93 48 3 13 20 33 38 43 58 34 69
119 37 281 -11 51 -17 110 -14 130 2 20 6 47 7 61 2 14 -2 36 -9 50 -7 14 -12
47 -11 74 3 47 5 50 59 87 50 35 65 40 123 42 44 2 69 -1 76 -10 8 -10 14 -10
24 -2 10 8 26 7 61 -4 45 -15 69 -20 136 -31 35 -6 56 -23 68 -54 5 -14 16
-22 26 -21 20 3 67 -22 120 -63 40 -31 65 -35 87 -13 10 11 21 12 38 6 14 -5
30 -4 41 3 15 9 22 7 37 -12 10 -12 21 -28 23 -35 4 -9 8 -9 15 2 5 7 15 10
21 7 6 -4 11 -2 11 5 0 7 14 0 30 -16 24 -23 30 -25 30 -11 0 16 1 16 29 0 16
-10 32 -26 34 -36 3 -10 14 -18 26 -18 11 0 26 -7 33 -15 33 -39 41 -46 54
-41 7 3 16 -3 19 -14 7 -23 35 -35 35 -15 0 8 4 15 8 15 15 0 49 -44 56 -72 3
-14 35 -58 71 -97 36 -39 65 -76 65 -82 0 -5 5 -7 10 -4 6 3 10 3 11 -2 4 -41
13 -74 30 -109 27 -56 24 -98 -15 -216 -99 -306 -258 -616 -459 -897 -162
-225 -441 -516 -668 -693 -469 -366 -1026 -599 -1634 -684 -27 -3 -58 -8 -67
-10 -22 -4 -343 -17 -418 -17 -62 0 -241 13 -250 18 -3 1 -36 6 -75 10 -38 3
-88 10 -110 15 -22 5 -69 14 -105 21 -123 23 -295 70 -445 121 -497 169 -898
421 -1284 807 -433 433 -698 882 -872 1479 -17 59 -32 114 -34 122 -49 232
-57 285 -74 466 -8 89 -6 547 3 615 23 175 33 243 41 269 3 8 7 32 10 53 4 20
17 79 31 130 13 50 26 100 28 109 3 9 25 79 50 154 168 501 421 908 806 1294
344 345 656 557 1105 750 97 42 365 129 390 127 27 -2 31 -7 55 -87z m340 -30
c0 -5 -5 -10 -11 -10 -5 0 -7 5 -4 10 3 6 8 10 11 10 2 0 4 -4 4 -10z m40 -55
c5 -14 17 -25 26 -25 13 0 14 3 5 14 -8 9 -8 16 -2 20 6 4 17 -6 24 -21 14
-26 20 -48 32 -113 3 -13 25 -64 50 -112 69 -135 85 -162 102 -175 8 -6 12
-16 8 -22 -3 -6 -1 -11 4 -11 6 0 12 5 12 10 1 6 2 16 3 23 1 6 -4 25 -12 40
-7 16 -11 31 -8 34 3 3 -1 22 -9 42 -22 56 -26 151 -7 159 9 3 17 1 20 -6 2
-6 10 -8 18 -5 8 3 14 -1 14 -11 0 -19 11 -21 27 -5 9 9 13 5 18 -17 3 -16 11
-47 17 -69 7 -22 13 -49 14 -60 6 -51 61 -234 77 -256 10 -13 15 -19 12 -12
-3 6 -1 14 4 17 5 3 16 -9 24 -27 26 -56 26 -87 -3 -87 -16 0 -18 -4 -11 -23
5 -12 14 -56 20 -96 7 -41 23 -97 37 -125 14 -28 28 -62 30 -75 3 -13 12 -37
20 -54 18 -33 20 -46 29 -157 10 -135 15 -172 24 -188 21 -43 -17 -57 -44 -16
-9 14 -25 34 -35 44 -10 10 -30 42 -45 71 -14 30 -32 61 -40 69 -43 50 -51
105 -54 358 -1 61 -21 71 -49 22 -22 -39 -30 -38 -25 3 3 17 1 28 -4 22 -4 -5
-16 -17 -26 -25 -18 -13 -19 -12 -16 25 3 31 0 40 -12 40 -9 0 -23 8 -33 17
-13 14 -15 22 -6 38 7 13 7 20 0 20 -5 0 -10 -6 -10 -12 0 -27 -20 18 -20 46
0 29 1 29 -47 9 -15 -6 -18 23 -4 32 6 3 8 14 6 25 -2 11 0 22 5 25 10 6 1 45
-11 45 -4 0 -12 -8 -18 -17 -13 -24 -22 -12 -22 28 0 19 -4 45 -9 59 -4 14
-11 33 -14 44 -5 15 -9 16 -22 5 -15 -12 -16 -8 -10 36 4 27 9 51 11 53 2 2
-3 21 -10 43 -8 21 -12 39 -9 39 3 0 -4 14 -17 31 -27 38 -41 159 -18 159 8 0
1 11 -15 23 -20 16 -27 29 -23 40 9 23 16 21 27 -8z m454 -383 c11 -53 14
-122 6 -127 -9 -5 -21 51 -25 122 -4 47 10 50 19 5z m-204 -895 c-1 -15 -50
40 -50 55 0 6 11 -1 25 -16 14 -15 25 -32 25 -39z m-19 -144 c-6 -12 -5 -20 6
-29 9 -6 13 -16 9 -22 -18 -30 -40 3 -30 44 3 13 10 24 16 24 5 0 5 -7 -1 -17z
m224 -173 c3 -5 2 -10 -4 -10 -5 0 -13 5 -16 10 -3 6 -2 10 4 10 5 0 13 -4 16
-10z m-445 -165 c-7 -8 -16 -15 -21 -15 -5 0 -6 7 -3 15 4 8 13 15 21 15 13 0
13 -3 3 -15z m180 -46 c8 -31 -5 -63 -48 -116 -27 -35 -40 -43 -65 -43 -40 0
-52 8 -63 40 -12 37 -12 42 3 73 15 30 23 33 41 15 9 -9 14 -5 23 20 9 26 17
32 47 35 52 5 56 4 62 -24z m-227 15 c12 -4 13 -12 4 -40 -6 -19 -14 -34 -18
-34 -10 0 -20 46 -13 64 7 18 7 18 27 10z m2000 -856 c8 -18 18 -51 22 -73 11
-65 38 -144 47 -139 4 3 8 -2 8 -12 0 -15 2 -15 23 -2 56 36 72 27 81 -46 4
-30 1 -39 -20 -53 -14 -10 -34 -26 -45 -35 -10 -10 -24 -18 -29 -18 -6 0 -22
-7 -36 -16 -13 -9 -27 -14 -30 -11 -3 3 -17 2 -30 -3 -26 -10 -31 -1 -12 18 9
9 5 16 -15 32 -38 30 -23 81 31 101 13 5 21 13 17 19 -3 5 -13 6 -22 3 -9 -4
-14 -2 -10 3 6 10 -10 67 -26 92 -5 7 -3 12 4 12 7 0 5 10 -7 27 -16 26 -21
103 -8 125 12 19 43 6 57 -24z m487 -188 c22 -11 46 -20 55 -20 8 0 15 -4 15
-10 0 -5 8 -10 18 -10 27 0 195 -65 238 -92 21 -14 59 -35 84 -47 86 -42 120
-66 120 -85 0 -11 8 -28 18 -39 16 -20 16 -20 -3 -12 -11 4 -29 9 -40 10 -11
1 -37 7 -58 14 -33 11 -41 11 -64 -4 -14 -9 -23 -13 -19 -7 6 10 -47 20 -138
26 -26 2 -51 8 -55 14 -3 5 -25 8 -47 7 -23 -2 -79 5 -125 16 -46 10 -97 19
-114 19 l-29 0 22 16 c18 13 21 19 11 30 -6 8 -22 14 -35 14 -36 0 -37 17 -1
39 18 11 43 29 55 40 13 11 31 17 42 14 14 -4 20 0 20 11 0 9 5 16 12 16 6 0
2 10 -10 23 -39 41 -30 46 28 17z m-1808 -19 c61 -23 91 -78 104 -194 5 -40
11 -57 19 -53 7 2 17 -6 23 -19 8 -18 16 -22 33 -18 14 4 26 0 34 -10 6 -9 34
-27 61 -41 27 -14 43 -26 37 -26 -7 0 -13 -5 -13 -10 0 -10 8 -14 47 -26 9 -2
10 -10 4 -27 -11 -29 4 -58 25 -50 13 5 15 2 9 -16 -3 -12 -3 -21 2 -20 4 1
15 1 23 0 12 -1 12 -4 -2 -15 -20 -15 -50 -91 -40 -100 3 -4 -3 -9 -15 -12
-16 -4 -23 -17 -28 -45 -10 -56 -33 -65 -83 -33 -30 20 -42 35 -47 60 -7 38
-1 54 21 54 8 0 14 5 14 10 0 6 7 10 16 10 9 0 14 8 13 18 -1 9 0 20 1 25 1 4
3 13 4 20 1 6 7 11 14 9 7 -1 12 2 12 7 0 5 3 16 6 24 4 12 0 14 -17 10 -15
-4 -20 -3 -15 5 4 6 2 21 -4 32 -13 23 7 29 29 8 11 -11 13 -10 9 1 -5 17 -41
32 -56 22 -7 -4 -8 -19 -4 -41 4 -19 6 -46 3 -60 l-4 -25 -6 25 c-9 34 -51 53
-93 42 -26 -7 -38 -18 -57 -60 -22 -44 -31 -53 -70 -66 -30 -9 -68 -13 -106
-10 -89 7 -98 11 -122 49 -22 34 -22 35 -2 48 10 8 17 16 14 19 -3 3 1 11 10
18 8 7 15 18 15 25 0 7 16 22 35 34 32 18 47 41 28 41 -5 0 -9 39 -11 87 -2
62 1 88 10 94 19 12 28 11 28 -4 0 -12 86 -106 123 -135 26 -20 22 8 -8 49
-13 19 -32 44 -41 57 -10 14 -18 48 -20 84 -2 35 -12 78 -23 99 -11 20 -17 40
-13 44 7 6 34 1 74 -14z m1573 -72 c9 -27 -4 -39 -32 -28 -37 14 -27 45 14 48
6 1 15 -8 18 -20z m85 -5 c0 -8 -4 -12 -10 -9 -5 3 -10 10 -10 16 0 5 5 9 10
9 6 0 10 -7 10 -16z m1004 -66 c-9 -14 -24 2 -24 25 1 21 1 21 15 3 8 -10 12
-23 9 -28z m22 -68 c4 0 4 11 2 25 -3 14 -2 25 3 25 8 0 27 -29 27 -40 0 -13
26 -60 33 -60 4 0 10 -8 12 -17 4 -14 5 -12 6 5 1 29 14 28 31 -3 17 -32 34
-32 28 0 -3 13 -1 22 4 19 5 -3 15 -1 22 5 17 15 44 4 51 -20 4 -11 10 -17 15
-14 5 3 10 0 12 -7 7 -21 26 1 23 27 -1 16 2 24 9 22 11 -4 12 -7 15 -49 2
-20 4 -19 16 10 19 44 39 49 71 17 14 -14 37 -31 51 -36 13 -5 22 -12 20 -16
-3 -5 -8 -44 -11 -88 -8 -104 -16 -156 -27 -177 -5 -10 -5 -27 1 -42 8 -23 7
-25 -18 -24 -15 0 -42 -2 -60 -4 -34 -6 -91 19 -165 73 -22 16 -48 29 -59 29
-10 0 -18 6 -18 14 0 21 -24 38 -37 25 -8 -8 -20 1 -42 31 -31 43 -39 74 -22
84 5 3 7 15 4 26 -3 11 0 20 6 20 20 0 11 55 -14 90 -14 19 -25 40 -25 47 0 7
-4 13 -8 13 -4 0 -16 15 -27 33 l-19 32 42 -37 c23 -21 45 -38 48 -38z m-1016
40 c0 -5 -7 -10 -15 -10 -8 0 -15 5 -15 10 0 6 7 10 15 10 8 0 15 -4 15 -10z
m734 -116 c8 -21 -12 -17 -24 6 -8 16 -8 18 4 14 8 -3 17 -12 20 -20z m56 -25
c0 -5 -4 -9 -10 -9 -5 0 -10 7 -10 16 0 8 5 12 10 9 6 -3 10 -10 10 -16z m88
-16 c-5 -24 -25 -27 -31 -3 -4 15 0 20 15 20 13 0 18 -6 16 -17z m117 -44 c2
-20 -14 -39 -16 -20 -1 6 -2 17 -3 24 -3 16 4 30 12 22 3 -3 6 -15 7 -26z
m-27 -40 c-3 -9 -11 -6 -26 9 -13 13 -20 28 -16 33 9 15 48 -25 42 -42z
m-2215 -9 c7 0 6 -5 -2 -12 -11 -11 -14 -10 -18 0 -3 6 -9 10 -14 6 -5 -3 -9
0 -9 6 0 7 7 9 16 6 9 -3 21 -6 27 -6z m797 -76 c0 -8 -5 -25 -12 -37 l-12
-22 -6 25 c-6 24 6 49 23 50 4 0 7 -7 7 -16z m1560 -90 c0 -8 -4 -14 -9 -14
-11 0 -22 26 -14 34 9 9 23 -3 23 -20z m-2960 -41 c12 -11 11 -13 -9 -13 -30
0 -61 18 -61 35 0 12 5 13 28 3 15 -6 34 -18 42 -25z m65 -33 c3 -5 1 -10 -4
-10 -6 0 -11 5 -11 10 0 6 2 10 4 10 3 0 8 -4 11 -10z m295 -120 c0 -5 -2 -10
-4 -10 -3 0 -8 5 -11 10 -3 6 -1 10 4 10 6 0 11 -4 11 -10z"/>
<path d="M3230 2935 c0 -9 -4 -13 -10 -10 -5 3 -10 2 -10 -3 0 -15 32 -24 43
-13 6 6 15 7 21 2 6 -5 20 -11 31 -13 12 -2 20 -11 20 -23 0 -24 30 -30 71
-15 l29 12 -30 12 c-16 7 -50 22 -75 33 -73 33 -90 37 -90 18z"/>
<path d="M3464 2919 c-3 -6 -2 -15 4 -21 7 -7 14 -3 21 11 10 17 9 21 -3 21
-8 0 -18 -5 -22 -11z"/>
<path d="M3210 2890 c0 -6 7 -10 15 -10 8 0 15 2 15 4 0 2 -7 6 -15 10 -8 3
-15 1 -15 -4z"/>
<path d="M2810 2858 c-1 -47 -11 -104 -26 -146 -9 -24 -14 -46 -11 -49 3 -3
-5 -15 -19 -28 -13 -12 -24 -27 -24 -33 0 -16 -91 -193 -118 -229 -13 -18 -19
-33 -13 -33 22 0 10 -29 -28 -65 -41 -39 -82 -113 -100 -181 -6 -23 -18 -45
-26 -48 -8 -3 -15 -12 -15 -21 0 -8 -7 -15 -16 -15 -9 0 -18 -9 -21 -20 -3
-11 -8 -20 -12 -20 -4 0 -13 -16 -20 -35 -6 -19 -30 -53 -52 -76 -21 -22 -39
-47 -39 -55 0 -8 -4 -14 -10 -14 -5 0 -12 -11 -16 -25 -3 -14 -10 -25 -14 -25
-4 0 -38 -62 -75 -137 -37 -76 -80 -163 -95 -193 -24 -47 -40 -97 -45 -135 -2
-15 26 -45 57 -61 64 -33 307 -41 348 -12 128 91 155 108 174 108 11 0 35 12
51 28 17 15 49 39 72 54 23 15 57 43 76 62 19 19 47 41 63 50 16 8 38 27 49
42 11 14 41 48 66 75 60 65 179 301 184 364 0 11 12 38 26 60 50 78 67 124 33
90 -21 -20 -29 -13 -15 13 6 11 7 22 4 26 -9 8 -33 -14 -33 -30 0 -8 -4 -14
-10 -14 -5 0 -10 -7 -10 -15 0 -8 7 -15 15 -15 22 0 20 -4 -32 -74 -27 -35
-63 -90 -81 -123 -35 -63 -98 -138 -104 -126 -5 10 -3 37 6 89 l7 39 -26 -35
c-15 -19 -40 -62 -57 -95 -44 -86 -98 -166 -109 -159 -5 3 -7 10 -4 15 4 5 3
14 0 20 -10 15 -43 -18 -50 -51 -3 -15 -16 -36 -27 -46 -21 -19 -21 -19 -16 1
3 11 9 28 13 38 10 24 -13 22 -42 -5 -13 -12 -25 -19 -28 -16 -3 3 10 21 30
40 19 19 37 43 39 54 2 10 9 39 16 63 6 23 9 45 7 47 -4 5 -78 -99 -124 -175
-13 -20 -23 -46 -23 -58 0 -13 -18 -37 -46 -62 -48 -42 -70 -52 -61 -27 3 8
-1 20 -9 26 -8 7 -14 30 -14 51 0 22 -3 39 -8 39 -4 0 -6 25 -5 56 3 65 39
158 59 150 7 -3 15 3 17 12 4 14 6 13 12 -5 9 -27 20 -30 29 -7 11 30 6 125
-9 153 -17 34 -11 79 15 103 10 10 22 28 25 40 4 13 14 30 22 39 8 9 15 27 16
38 1 18 6 21 24 16 20 -5 23 -2 23 24 0 16 -5 31 -11 33 -6 2 -8 14 -3 32 l7
29 12 -23 c9 -17 14 -20 20 -9 5 7 4 14 -3 17 -16 5 -14 43 3 66 19 26 19 42
0 26 -10 -9 -15 -9 -15 -1 0 10 13 15 32 12 9 -1 92 108 113 149 9 17 20 28
25 25 15 -9 20 12 6 25 -20 16 -16 50 6 50 9 0 19 4 23 9 3 6 -4 8 -15 6 -17
-3 -19 -1 -10 16 8 15 15 17 28 10 15 -8 18 -2 28 52 6 34 12 67 14 72 1 6 2
22 1 38 -1 28 -13 36 -73 51 -24 5 -28 3 -28 -16z m-206 -592 c-3 -9 -16 -16
-28 -15 -14 0 -16 2 -6 6 8 3 19 12 23 20 11 19 19 11 11 -11z m-73 -92 c-11
-15 -21 -24 -21 -20 0 12 33 57 37 52 3 -3 -4 -17 -16 -32z m-173 -574 c0 -16
-3 -30 -7 -30 -4 0 -7 14 -7 30 0 17 3 30 6 30 4 0 7 -13 8 -30z m-8 -83 c0
-37 -53 -129 -58 -102 -2 9 5 30 16 48 10 18 22 45 26 60 9 37 16 34 16 -6z
m55 13 c3 -5 1 -10 -4 -10 -15 0 -14 -37 2 -43 9 -4 8 -8 -3 -16 -8 -6 -18
-11 -22 -11 -10 0 -11 74 -1 83 9 10 21 9 28 -3z m-146 -236 c-14 -18 -24 -11
-15 11 3 9 11 13 16 10 8 -5 7 -11 -1 -21z m141 11 c-7 -8 -18 -15 -25 -15 -7
0 -18 -7 -25 -15 -7 -9 -15 -13 -18 -10 -3 3 -11 0 -19 -7 -7 -6 -17 -8 -21
-4 -12 13 72 65 107 66 11 0 11 -3 1 -15z m-143 -60 c-11 -7 -26 -11 -35 -8
-13 6 -13 8 4 14 10 4 26 8 34 8 12 0 11 -3 -3 -14z"/>
<path d="M3275 2870 c-3 -5 -1 -10 4 -10 6 0 11 5 11 10 0 6 -2 10 -4 10 -3 0
-8 -4 -11 -10z"/>
<path d="M3450 2870 c0 -13 18 -22 24 -11 3 5 -1 11 -9 15 -8 3 -15 1 -15 -4z"/>
<path d="M3137 2827 c-3 -9 -2 -19 3 -22 6 -4 10 -15 10 -26 0 -12 7 -19 20
-19 27 0 25 23 -3 56 -20 23 -25 25 -30 11z"/>
<path d="M3353 2563 c-3 -10 -14 -29 -23 -43 -9 -14 -17 -42 -19 -64 -1 -21
-9 -61 -16 -90 -12 -44 -11 -48 1 -32 8 11 14 26 14 33 0 7 11 46 25 86 27 76
39 127 30 127 -3 0 -8 -8 -12 -17z"/>
<path d="M3257 2393 c-4 -3 -7 -11 -7 -17 0 -6 5 -5 12 2 6 6 9 14 7 17 -3 3
-9 2 -12 -2z"/>
<path d="M2549 1975 c-3 -6 -5 -17 -4 -25 1 -8 3 -27 3 -42 1 -16 7 -28 12
-28 6 0 10 12 9 28 -1 37 -14 79 -20 67z"/>
<path d="M2967 1933 c-4 -3 -7 -11 -7 -17 0 -6 5 -5 12 2 6 6 9 14 7 17 -3 3
-9 2 -12 -2z"/>
<path d="M2450 1529 c0 -5 5 -7 10 -4 6 3 10 8 10 11 0 2 -4 4 -10 4 -5 0 -10
-5 -10 -11z"/>
<path d="M5458 3503 c7 -3 16 -2 19 1 4 3 -2 6 -13 5 -11 0 -14 -3 -6 -6z"/>
<path d="M6576 3421 c-4 -5 -2 -12 3 -15 5 -4 12 -2 15 3 4 5 2 12 -3 15 -5 4
-12 2 -15 -3z"/>
<path d="M6730 3416 c0 -9 5 -16 10 -16 6 0 10 4 10 9 0 6 -4 13 -10 16 -5 3
-10 -1 -10 -9z"/>
</g>
</svg>
